<svg width="275" height="168" viewBox="0 0 275 168" fill="none" xmlns="http://www.w3.org/2000/svg">
<path d="M7.50185 141.501C118.502 191.501 231.502 134.501 267.502 66.5009" stroke="black" stroke-width="15" stroke-linecap="round"/>
<path d="M68.3768 14.7795C73.6024 14.0451 78.9182 16.9188 83.2879 22.3463C87.65 27.7643 91.0027 35.6577 92.2797 44.7445C93.5568 53.8313 92.5097 62.343 89.81 68.7535C87.1056 75.1751 82.7878 79.4028 77.5622 80.1372C72.3366 80.8716 67.0208 77.9978 62.6511 72.5704C58.2891 67.1524 54.9363 59.259 53.6593 50.1722C52.3822 41.0854 53.4293 32.5737 56.129 26.1632C58.8334 19.7416 63.1512 15.5139 68.3768 14.7795Z" fill="black" stroke="black"/>
<path d="M193.502 6.0009C178.002 8.5009 152.002 25.0009 151.502 30.5009C151.002 36.0009 198.002 30.5009 198.002 30.5009" stroke="black" stroke-width="12" stroke-linecap="round"/>
</svg>
